<svg xmlns="http://www.w3.org/2000/svg" viewBox="0 0 760 452" width="760" height="452" font-family="-apple-system, BlinkMacSystemFont, Segoe UI, Helvetica, Arial, sans-serif" role="img" aria-label="Three compact ways to show the 8 vine stages"><rect width="760" height="452" fill="#ffffff"/><text x="24" y="30" font-size="15" font-weight="600" fill="#1f1f1f" text-anchor="start">Three compact ways to show the 8 vine stages</text><text x="24" y="50" font-size="11.5" font-weight="600" fill="#1a9e1a" text-anchor="start">Decision: option B (coloured pictograms)</text><text x="68.5" y="84" font-size="11.5" font-weight="400" fill="#6b6b6b" text-anchor="middle">Buds opening</text><text x="157.5" y="84" font-size="11.5" font-weight="400" fill="#6b6b6b" text-anchor="middle">First leaves</text><text x="335.5" y="84" font-size="11.5" font-weight="400" fill="#6b6b6b" text-anchor="middle">Flowering</text><text x="424.5" y="84" font-size="11.5" font-weight="400" fill="#6b6b6b" text-anchor="middle">Small berries</text><text x="513.5" y="84" font-size="11.5" font-weight="400" fill="#6b6b6b" text-anchor="middle">Bunch closing</text><text x="602.5" y="84" font-size="11.5" font-weight="400" fill="#6b6b6b" text-anchor="middle">Colour change</text><text x="691.5" y="84" font-size="11.5" font-weight="400" fill="#6b6b6b" text-anchor="middle">Ripe</text><text x="246.5" y="78" font-size="11.5" font-weight="400" fill="#6b6b6b" text-anchor="middle">Flower</text><text x="246.5" y="91" font-size="11.5" font-weight="400" fill="#6b6b6b" text-anchor="middle">clusters</text><line x1="24" x2="736" y1="108" y2="108" stroke="#e4e4e0"/><text x="24" y="130" font-size="13" font-weight="600" fill="#1f1f1f" text-anchor="start">A · Outline pictograms</text><text x="270" y="130" font-size="11.5" font-weight="400" fill="#6b6b6b" text-anchor="start">Monochrome line drawings, same style as the app's icons</text><line x1="50.5" y1="190" x2="86.5" y2="190" stroke="#1f1f1f" stroke-width="3" stroke-linecap="round"/><ellipse cx="68.5" cy="178" rx="6" ry="10" fill="none" stroke="#1f1f1f" stroke-width="1.5"/><line x1="139.5" y1="190" x2="175.5" y2="190" stroke="#1f1f1f" stroke-width="3" stroke-linecap="round"/><line x1="157.5" y1="190" x2="157.5" y2="156" stroke="#1f1f1f" stroke-width="1.5"/><ellipse cx="148.5" cy="174" rx="9" ry="5" transform="rotate(-30 148.5 174)" fill="none" stroke="#1f1f1f" stroke-width="1.25"/><ellipse cx="166.5" cy="163" rx="9" ry="5" transform="rotate(30 166.5 163)" fill="none" stroke="#1f1f1f" stroke-width="1.25"/><line x1="228.5" y1="190" x2="264.5" y2="190" stroke="#1f1f1f" stroke-width="3" stroke-linecap="round"/><line x1="246.5" y1="190" x2="246.5" y2="152" stroke="#1f1f1f" stroke-width="1.5"/><ellipse cx="256.5" cy="160" rx="9" ry="5" transform="rotate(30 256.5 160)" fill="none" stroke="#1f1f1f" stroke-width="1.25"/><circle cx="231.0" cy="166.0" r="2" fill="none" stroke="#1f1f1f" stroke-width="1"/><circle cx="236.0" cy="166.0" r="2" fill="none" stroke="#1f1f1f" stroke-width="1"/><circle cx="241.0" cy="166.0" r="2" fill="none" stroke="#1f1f1f" stroke-width="1"/><circle cx="246.0" cy="166.0" r="2" fill="none" stroke="#1f1f1f" stroke-width="1"/><circle cx="231.0" cy="170.2" r="2" fill="none" stroke="#1f1f1f" stroke-width="1"/><circle cx="236.0" cy="170.2" r="2" fill="none" stroke="#1f1f1f" stroke-width="1"/><circle cx="241.0" cy="170.2" r="2" fill="none" stroke="#1f1f1f" stroke-width="1"/><circle cx="246.0" cy="170.2" r="2" fill="none" stroke="#1f1f1f" stroke-width="1"/><circle cx="233.5" cy="174.5" r="2" fill="none" stroke="#1f1f1f" stroke-width="1"/><circle cx="238.5" cy="174.5" r="2" fill="none" stroke="#1f1f1f" stroke-width="1"/><circle cx="243.5" cy="174.5" r="2" fill="none" stroke="#1f1f1f" stroke-width="1"/><circle cx="236.0" cy="178.8" r="2" fill="none" stroke="#1f1f1f" stroke-width="1"/><circle cx="241.0" cy="178.8" r="2" fill="none" stroke="#1f1f1f" stroke-width="1"/><circle cx="238.5" cy="183.0" r="2" fill="none" stroke="#1f1f1f" stroke-width="1"/><line x1="335.5" y1="150" x2="335.5" y2="160" stroke="#1f1f1f" stroke-width="1.5"/><circle cx="325.0" cy="160.0" r="3" fill="none" stroke="#1f1f1f" stroke-width="1"/><circle cx="332.0" cy="160.0" r="3" fill="none" stroke="#1f1f1f" stroke-width="1"/><circle cx="339.0" cy="160.0" r="3" fill="none" stroke="#1f1f1f" stroke-width="1"/><circle cx="346.0" cy="160.0" r="3" fill="none" stroke="#1f1f1f" stroke-width="1"/><circle cx="325.0" cy="165.9" r="3" fill="none" stroke="#1f1f1f" stroke-width="1"/><circle cx="332.0" cy="165.9" r="3" fill="none" stroke="#1f1f1f" stroke-width="1"/><circle cx="339.0" cy="165.9" r="3" fill="none" stroke="#1f1f1f" stroke-width="1"/><circle cx="346.0" cy="165.9" r="3" fill="none" stroke="#1f1f1f" stroke-width="1"/><circle cx="328.5" cy="171.9" r="3" fill="none" stroke="#1f1f1f" stroke-width="1"/><circle cx="335.5" cy="171.9" r="3" fill="none" stroke="#1f1f1f" stroke-width="1"/><circle cx="342.5" cy="171.9" r="3" fill="none" stroke="#1f1f1f" stroke-width="1"/><circle cx="332.0" cy="177.8" r="3" fill="none" stroke="#1f1f1f" stroke-width="1"/><circle cx="339.0" cy="177.8" r="3" fill="none" stroke="#1f1f1f" stroke-width="1"/><circle cx="335.5" cy="183.8" r="3" fill="none" stroke="#1f1f1f" stroke-width="1"/><line x1="424.5" y1="150" x2="424.5" y2="160" stroke="#1f1f1f" stroke-width="1.5"/><circle cx="411.0" cy="160.0" r="3" fill="none" stroke="#1f1f1f" stroke-width="1"/><circle cx="420.0" cy="160.0" r="3" fill="none" stroke="#1f1f1f" stroke-width="1"/><circle cx="429.0" cy="160.0" r="3" fill="none" stroke="#1f1f1f" stroke-width="1"/><circle cx="438.0" cy="160.0" r="3" fill="none" stroke="#1f1f1f" stroke-width="1"/><circle cx="411.0" cy="167.7" r="3" fill="none" stroke="#1f1f1f" stroke-width="1"/><circle cx="420.0" cy="167.7" r="3" fill="none" stroke="#1f1f1f" stroke-width="1"/><circle cx="429.0" cy="167.7" r="3" fill="none" stroke="#1f1f1f" stroke-width="1"/><circle cx="438.0" cy="167.7" r="3" fill="none" stroke="#1f1f1f" stroke-width="1"/><circle cx="415.5" cy="175.3" r="3" fill="none" stroke="#1f1f1f" stroke-width="1"/><circle cx="424.5" cy="175.3" r="3" fill="none" stroke="#1f1f1f" stroke-width="1"/><circle cx="433.5" cy="175.3" r="3" fill="none" stroke="#1f1f1f" stroke-width="1"/><circle cx="420.0" cy="182.9" r="3" fill="none" stroke="#1f1f1f" stroke-width="1"/><circle cx="429.0" cy="182.9" r="3" fill="none" stroke="#1f1f1f" stroke-width="1"/><circle cx="424.5" cy="190.6" r="3" fill="none" stroke="#1f1f1f" stroke-width="1"/><line x1="513.5" y1="150" x2="513.5" y2="160" stroke="#1f1f1f" stroke-width="1.5"/><circle cx="500.0" cy="160.0" r="4.8" fill="none" stroke="#1f1f1f" stroke-width="1"/><circle cx="509.0" cy="160.0" r="4.8" fill="none" stroke="#1f1f1f" stroke-width="1"/><circle cx="518.0" cy="160.0" r="4.8" fill="none" stroke="#1f1f1f" stroke-width="1"/><circle cx="527.0" cy="160.0" r="4.8" fill="none" stroke="#1f1f1f" stroke-width="1"/><circle cx="500.0" cy="167.7" r="4.8" fill="none" stroke="#1f1f1f" stroke-width="1"/><circle cx="509.0" cy="167.7" r="4.8" fill="none" stroke="#1f1f1f" stroke-width="1"/><circle cx="518.0" cy="167.7" r="4.8" fill="none" stroke="#1f1f1f" stroke-width="1"/><circle cx="527.0" cy="167.7" r="4.8" fill="none" stroke="#1f1f1f" stroke-width="1"/><circle cx="504.5" cy="175.3" r="4.8" fill="none" stroke="#1f1f1f" stroke-width="1"/><circle cx="513.5" cy="175.3" r="4.8" fill="none" stroke="#1f1f1f" stroke-width="1"/><circle cx="522.5" cy="175.3" r="4.8" fill="none" stroke="#1f1f1f" stroke-width="1"/><circle cx="509.0" cy="182.9" r="4.8" fill="none" stroke="#1f1f1f" stroke-width="1"/><circle cx="518.0" cy="182.9" r="4.8" fill="none" stroke="#1f1f1f" stroke-width="1"/><circle cx="513.5" cy="190.6" r="4.8" fill="none" stroke="#1f1f1f" stroke-width="1"/><line x1="602.5" y1="150" x2="602.5" y2="160" stroke="#1f1f1f" stroke-width="1.5"/><circle cx="589.0" cy="160.0" r="4.8" fill="none" stroke="#1f1f1f" stroke-width="1"/><circle cx="598.0" cy="160.0" r="4.8" fill="#1f1f1f" stroke="#1f1f1f" stroke-width="1"/><circle cx="607.0" cy="160.0" r="4.8" fill="none" stroke="#1f1f1f" stroke-width="1"/><circle cx="616.0" cy="160.0" r="4.8" fill="#1f1f1f" stroke="#1f1f1f" stroke-width="1"/><circle cx="589.0" cy="167.7" r="4.8" fill="#1f1f1f" stroke="#1f1f1f" stroke-width="1"/><circle cx="598.0" cy="167.7" r="4.8" fill="none" stroke="#1f1f1f" stroke-width="1"/><circle cx="607.0" cy="167.7" r="4.8" fill="#1f1f1f" stroke="#1f1f1f" stroke-width="1"/><circle cx="616.0" cy="167.7" r="4.8" fill="none" stroke="#1f1f1f" stroke-width="1"/><circle cx="593.5" cy="175.3" r="4.8" fill="none" stroke="#1f1f1f" stroke-width="1"/><circle cx="602.5" cy="175.3" r="4.8" fill="#1f1f1f" stroke="#1f1f1f" stroke-width="1"/><circle cx="611.5" cy="175.3" r="4.8" fill="none" stroke="#1f1f1f" stroke-width="1"/><circle cx="598.0" cy="182.9" r="4.8" fill="#1f1f1f" stroke="#1f1f1f" stroke-width="1"/><circle cx="607.0" cy="182.9" r="4.8" fill="#1f1f1f" stroke="#1f1f1f" stroke-width="1"/><circle cx="602.5" cy="190.6" r="4.8" fill="none" stroke="#1f1f1f" stroke-width="1"/><line x1="691.5" y1="150" x2="691.5" y2="160" stroke="#1f1f1f" stroke-width="1.5"/><circle cx="678.0" cy="160.0" r="4.8" fill="#1f1f1f" stroke="#1f1f1f" stroke-width="1"/><circle cx="687.0" cy="160.0" r="4.8" fill="#1f1f1f" stroke="#1f1f1f" stroke-width="1"/><circle cx="696.0" cy="160.0" r="4.8" fill="#1f1f1f" stroke="#1f1f1f" stroke-width="1"/><circle cx="705.0" cy="160.0" r="4.8" fill="#1f1f1f" stroke="#1f1f1f" stroke-width="1"/><circle cx="678.0" cy="167.7" r="4.8" fill="#1f1f1f" stroke="#1f1f1f" stroke-width="1"/><circle cx="687.0" cy="167.7" r="4.8" fill="#1f1f1f" stroke="#1f1f1f" stroke-width="1"/><circle cx="696.0" cy="167.7" r="4.8" fill="#1f1f1f" stroke="#1f1f1f" stroke-width="1"/><circle cx="705.0" cy="167.7" r="4.8" fill="#1f1f1f" stroke="#1f1f1f" stroke-width="1"/><circle cx="682.5" cy="175.3" r="4.8" fill="#1f1f1f" stroke="#1f1f1f" stroke-width="1"/><circle cx="691.5" cy="175.3" r="4.8" fill="#1f1f1f" stroke="#1f1f1f" stroke-width="1"/><circle cx="700.5" cy="175.3" r="4.8" fill="#1f1f1f" stroke="#1f1f1f" stroke-width="1"/><circle cx="687.0" cy="182.9" r="4.8" fill="#1f1f1f" stroke="#1f1f1f" stroke-width="1"/><circle cx="696.0" cy="182.9" r="4.8" fill="#1f1f1f" stroke="#1f1f1f" stroke-width="1"/><circle cx="691.5" cy="190.6" r="4.8" fill="#1f1f1f" stroke="#1f1f1f" stroke-width="1"/><line x1="24" x2="736" y1="206" y2="206" stroke="#e4e4e0"/><text x="24" y="228" font-size="13" font-weight="600" fill="#1f1f1f" text-anchor="start">B · Coloured pictograms (chosen)</text><text x="270" y="228" font-size="11.5" font-weight="400" fill="#6b6b6b" text-anchor="start">Green shoots, yellow flowers, berries turning green to purple</text><line x1="50.5" y1="288" x2="86.5" y2="288" stroke="#b8b8b0" stroke-width="3" stroke-linecap="round"/><ellipse cx="68.5" cy="276" rx="6" ry="10" fill="#1a9e1a" stroke="#1a9e1a" stroke-width="1.5"/><line x1="139.5" y1="288" x2="175.5" y2="288" stroke="#b8b8b0" stroke-width="3" stroke-linecap="round"/><line x1="157.5" y1="288" x2="157.5" y2="254" stroke="#1a9e1a" stroke-width="1.5"/><ellipse cx="148.5" cy="272" rx="9" ry="5" transform="rotate(-30 148.5 272)" fill="#1a9e1a" stroke="#1a9e1a" stroke-width="1.25"/><ellipse cx="166.5" cy="261" rx="9" ry="5" transform="rotate(30 166.5 261)" fill="#1a9e1a" stroke="#1a9e1a" stroke-width="1.25"/><line x1="228.5" y1="288" x2="264.5" y2="288" stroke="#b8b8b0" stroke-width="3" stroke-linecap="round"/><line x1="246.5" y1="288" x2="246.5" y2="250" stroke="#1a9e1a" stroke-width="1.5"/><ellipse cx="256.5" cy="258" rx="9" ry="5" transform="rotate(30 256.5 258)" fill="#1a9e1a" stroke="#1a9e1a" stroke-width="1.25"/><circle cx="231.0" cy="264.0" r="2" fill="#1a9e1a" stroke="#1a9e1a" stroke-width="1"/><circle cx="236.0" cy="264.0" r="2" fill="#1a9e1a" stroke="#1a9e1a" stroke-width="1"/><circle cx="241.0" cy="264.0" r="2" fill="#1a9e1a" stroke="#1a9e1a" stroke-width="1"/><circle cx="246.0" cy="264.0" r="2" fill="#1a9e1a" stroke="#1a9e1a" stroke-width="1"/><circle cx="231.0" cy="268.2" r="2" fill="#1a9e1a" stroke="#1a9e1a" stroke-width="1"/><circle cx="236.0" cy="268.2" r="2" fill="#1a9e1a" stroke="#1a9e1a" stroke-width="1"/><circle cx="241.0" cy="268.2" r="2" fill="#1a9e1a" stroke="#1a9e1a" stroke-width="1"/><circle cx="246.0" cy="268.2" r="2" fill="#1a9e1a" stroke="#1a9e1a" stroke-width="1"/><circle cx="233.5" cy="272.5" r="2" fill="#1a9e1a" stroke="#1a9e1a" stroke-width="1"/><circle cx="238.5" cy="272.5" r="2" fill="#1a9e1a" stroke="#1a9e1a" stroke-width="1"/><circle cx="243.5" cy="272.5" r="2" fill="#1a9e1a" stroke="#1a9e1a" stroke-width="1"/><circle cx="236.0" cy="276.8" r="2" fill="#1a9e1a" stroke="#1a9e1a" stroke-width="1"/><circle cx="241.0" cy="276.8" r="2" fill="#1a9e1a" stroke="#1a9e1a" stroke-width="1"/><circle cx="238.5" cy="281.0" r="2" fill="#1a9e1a" stroke="#1a9e1a" stroke-width="1"/><line x1="335.5" y1="248" x2="335.5" y2="258" stroke="#1a9e1a" stroke-width="1.5"/><circle cx="325.0" cy="258.0" r="3" fill="#f2b01e" stroke="#1a9e1a" stroke-width="1"/><circle cx="332.0" cy="258.0" r="3" fill="#f2b01e" stroke="#1a9e1a" stroke-width="1"/><circle cx="339.0" cy="258.0" r="3" fill="#f2b01e" stroke="#1a9e1a" stroke-width="1"/><circle cx="346.0" cy="258.0" r="3" fill="#f2b01e" stroke="#1a9e1a" stroke-width="1"/><circle cx="325.0" cy="263.9" r="3" fill="#f2b01e" stroke="#1a9e1a" stroke-width="1"/><circle cx="332.0" cy="263.9" r="3" fill="#f2b01e" stroke="#1a9e1a" stroke-width="1"/><circle cx="339.0" cy="263.9" r="3" fill="#f2b01e" stroke="#1a9e1a" stroke-width="1"/><circle cx="346.0" cy="263.9" r="3" fill="#f2b01e" stroke="#1a9e1a" stroke-width="1"/><circle cx="328.5" cy="269.9" r="3" fill="#f2b01e" stroke="#1a9e1a" stroke-width="1"/><circle cx="335.5" cy="269.9" r="3" fill="#f2b01e" stroke="#1a9e1a" stroke-width="1"/><circle cx="342.5" cy="269.9" r="3" fill="#f2b01e" stroke="#1a9e1a" stroke-width="1"/><circle cx="332.0" cy="275.9" r="3" fill="#f2b01e" stroke="#1a9e1a" stroke-width="1"/><circle cx="339.0" cy="275.9" r="3" fill="#f2b01e" stroke="#1a9e1a" stroke-width="1"/><circle cx="335.5" cy="281.8" r="3" fill="#f2b01e" stroke="#1a9e1a" stroke-width="1"/><line x1="424.5" y1="248" x2="424.5" y2="258" stroke="#1a9e1a" stroke-width="1.5"/><circle cx="411.0" cy="258.0" r="3" fill="#1a9e1a" stroke="#1a9e1a" stroke-width="1"/><circle cx="420.0" cy="258.0" r="3" fill="#1a9e1a" stroke="#1a9e1a" stroke-width="1"/><circle cx="429.0" cy="258.0" r="3" fill="#1a9e1a" stroke="#1a9e1a" stroke-width="1"/><circle cx="438.0" cy="258.0" r="3" fill="#1a9e1a" stroke="#1a9e1a" stroke-width="1"/><circle cx="411.0" cy="265.6" r="3" fill="#1a9e1a" stroke="#1a9e1a" stroke-width="1"/><circle cx="420.0" cy="265.6" r="3" fill="#1a9e1a" stroke="#1a9e1a" stroke-width="1"/><circle cx="429.0" cy="265.6" r="3" fill="#1a9e1a" stroke="#1a9e1a" stroke-width="1"/><circle cx="438.0" cy="265.6" r="3" fill="#1a9e1a" stroke="#1a9e1a" stroke-width="1"/><circle cx="415.5" cy="273.3" r="3" fill="#1a9e1a" stroke="#1a9e1a" stroke-width="1"/><circle cx="424.5" cy="273.3" r="3" fill="#1a9e1a" stroke="#1a9e1a" stroke-width="1"/><circle cx="433.5" cy="273.3" r="3" fill="#1a9e1a" stroke="#1a9e1a" stroke-width="1"/><circle cx="420.0" cy="280.9" r="3" fill="#1a9e1a" stroke="#1a9e1a" stroke-width="1"/><circle cx="429.0" cy="280.9" r="3" fill="#1a9e1a" stroke="#1a9e1a" stroke-width="1"/><circle cx="424.5" cy="288.6" r="3" fill="#1a9e1a" stroke="#1a9e1a" stroke-width="1"/><line x1="513.5" y1="248" x2="513.5" y2="258" stroke="#1a9e1a" stroke-width="1.5"/><circle cx="500.0" cy="258.0" r="4.8" fill="#1a9e1a" stroke="#1a9e1a" stroke-width="1"/><circle cx="509.0" cy="258.0" r="4.8" fill="#1a9e1a" stroke="#1a9e1a" stroke-width="1"/><circle cx="518.0" cy="258.0" r="4.8" fill="#1a9e1a" stroke="#1a9e1a" stroke-width="1"/><circle cx="527.0" cy="258.0" r="4.8" fill="#1a9e1a" stroke="#1a9e1a" stroke-width="1"/><circle cx="500.0" cy="265.6" r="4.8" fill="#1a9e1a" stroke="#1a9e1a" stroke-width="1"/><circle cx="509.0" cy="265.6" r="4.8" fill="#1a9e1a" stroke="#1a9e1a" stroke-width="1"/><circle cx="518.0" cy="265.6" r="4.8" fill="#1a9e1a" stroke="#1a9e1a" stroke-width="1"/><circle cx="527.0" cy="265.6" r="4.8" fill="#1a9e1a" stroke="#1a9e1a" stroke-width="1"/><circle cx="504.5" cy="273.3" r="4.8" fill="#1a9e1a" stroke="#1a9e1a" stroke-width="1"/><circle cx="513.5" cy="273.3" r="4.8" fill="#1a9e1a" stroke="#1a9e1a" stroke-width="1"/><circle cx="522.5" cy="273.3" r="4.8" fill="#1a9e1a" stroke="#1a9e1a" stroke-width="1"/><circle cx="509.0" cy="280.9" r="4.8" fill="#1a9e1a" stroke="#1a9e1a" stroke-width="1"/><circle cx="518.0" cy="280.9" r="4.8" fill="#1a9e1a" stroke="#1a9e1a" stroke-width="1"/><circle cx="513.5" cy="288.6" r="4.8" fill="#1a9e1a" stroke="#1a9e1a" stroke-width="1"/><line x1="602.5" y1="248" x2="602.5" y2="258" stroke="#1a9e1a" stroke-width="1.5"/><circle cx="589.0" cy="258.0" r="4.8" fill="#1a9e1a" stroke="#1a9e1a" stroke-width="1"/><circle cx="598.0" cy="258.0" r="4.8" fill="#4b3aa6" stroke="#1a9e1a" stroke-width="1"/><circle cx="607.0" cy="258.0" r="4.8" fill="#1a9e1a" stroke="#1a9e1a" stroke-width="1"/><circle cx="616.0" cy="258.0" r="4.8" fill="#4b3aa6" stroke="#1a9e1a" stroke-width="1"/><circle cx="589.0" cy="265.6" r="4.8" fill="#4b3aa6" stroke="#1a9e1a" stroke-width="1"/><circle cx="598.0" cy="265.6" r="4.8" fill="#1a9e1a" stroke="#1a9e1a" stroke-width="1"/><circle cx="607.0" cy="265.6" r="4.8" fill="#4b3aa6" stroke="#1a9e1a" stroke-width="1"/><circle cx="616.0" cy="265.6" r="4.8" fill="#1a9e1a" stroke="#1a9e1a" stroke-width="1"/><circle cx="593.5" cy="273.3" r="4.8" fill="#1a9e1a" stroke="#1a9e1a" stroke-width="1"/><circle cx="602.5" cy="273.3" r="4.8" fill="#4b3aa6" stroke="#1a9e1a" stroke-width="1"/><circle cx="611.5" cy="273.3" r="4.8" fill="#1a9e1a" stroke="#1a9e1a" stroke-width="1"/><circle cx="598.0" cy="280.9" r="4.8" fill="#4b3aa6" stroke="#1a9e1a" stroke-width="1"/><circle cx="607.0" cy="280.9" r="4.8" fill="#4b3aa6" stroke="#1a9e1a" stroke-width="1"/><circle cx="602.5" cy="288.6" r="4.8" fill="#1a9e1a" stroke="#1a9e1a" stroke-width="1"/><line x1="691.5" y1="248" x2="691.5" y2="258" stroke="#1a9e1a" stroke-width="1.5"/><circle cx="678.0" cy="258.0" r="4.8" fill="#4b3aa6" stroke="#4b3aa6" stroke-width="1"/><circle cx="687.0" cy="258.0" r="4.8" fill="#4b3aa6" stroke="#4b3aa6" stroke-width="1"/><circle cx="696.0" cy="258.0" r="4.8" fill="#4b3aa6" stroke="#4b3aa6" stroke-width="1"/><circle cx="705.0" cy="258.0" r="4.8" fill="#4b3aa6" stroke="#4b3aa6" stroke-width="1"/><circle cx="678.0" cy="265.6" r="4.8" fill="#4b3aa6" stroke="#4b3aa6" stroke-width="1"/><circle cx="687.0" cy="265.6" r="4.8" fill="#4b3aa6" stroke="#4b3aa6" stroke-width="1"/><circle cx="696.0" cy="265.6" r="4.8" fill="#4b3aa6" stroke="#4b3aa6" stroke-width="1"/><circle cx="705.0" cy="265.6" r="4.8" fill="#4b3aa6" stroke="#4b3aa6" stroke-width="1"/><circle cx="682.5" cy="273.3" r="4.8" fill="#4b3aa6" stroke="#4b3aa6" stroke-width="1"/><circle cx="691.5" cy="273.3" r="4.8" fill="#4b3aa6" stroke="#4b3aa6" stroke-width="1"/><circle cx="700.5" cy="273.3" r="4.8" fill="#4b3aa6" stroke="#4b3aa6" stroke-width="1"/><circle cx="687.0" cy="280.9" r="4.8" fill="#4b3aa6" stroke="#4b3aa6" stroke-width="1"/><circle cx="696.0" cy="280.9" r="4.8" fill="#4b3aa6" stroke="#4b3aa6" stroke-width="1"/><circle cx="691.5" cy="288.6" r="4.8" fill="#4b3aa6" stroke="#4b3aa6" stroke-width="1"/><line x1="24" x2="736" y1="304" y2="304" stroke="#e4e4e0"/><text x="24" y="326" font-size="13" font-weight="600" fill="#1f1f1f" text-anchor="start">C · Compact stepper</text><text x="270" y="326" font-size="11.5" font-weight="400" fill="#6b6b6b" text-anchor="start">One line of dots; the picked stage shows its picture and name</text><line x1="68.5" x2="691.5" y1="366" y2="366" stroke="#b8b8b0" stroke-width="1.25"/><circle cx="68.5" cy="366" r="6" fill="#1a9e1a" stroke="#1a9e1a" stroke-width="1.25"/><circle cx="157.5" cy="366" r="6" fill="#1a9e1a" stroke="#1a9e1a" stroke-width="1.25"/><circle cx="246.5" cy="366" r="6" fill="#1a9e1a" stroke="#1a9e1a" stroke-width="1.25"/><circle cx="424.5" cy="366" r="6" fill="#f3f3f0" stroke="#b8b8b0" stroke-width="1.25"/><circle cx="513.5" cy="366" r="6" fill="#f3f3f0" stroke="#b8b8b0" stroke-width="1.25"/><circle cx="602.5" cy="366" r="6" fill="#f3f3f0" stroke="#b8b8b0" stroke-width="1.25"/><circle cx="691.5" cy="366" r="6" fill="#f3f3f0" stroke="#b8b8b0" stroke-width="1.25"/><circle cx="335.5" cy="366" r="20" fill="#2f74d0" fill-opacity="0.12" stroke="#2f74d0" stroke-width="2"/><g transform="translate(335.5 369) scale(0.55) translate(-335.5 -369)"><line x1="335.5" y1="347" x2="335.5" y2="357" stroke="#1a9e1a" stroke-width="1.5"/><circle cx="325.0" cy="357.0" r="3" fill="#f2b01e" stroke="#1a9e1a" stroke-width="1"/><circle cx="332.0" cy="357.0" r="3" fill="#f2b01e" stroke="#1a9e1a" stroke-width="1"/><circle cx="339.0" cy="357.0" r="3" fill="#f2b01e" stroke="#1a9e1a" stroke-width="1"/><circle cx="346.0" cy="357.0" r="3" fill="#f2b01e" stroke="#1a9e1a" stroke-width="1"/><circle cx="325.0" cy="362.9" r="3" fill="#f2b01e" stroke="#1a9e1a" stroke-width="1"/><circle cx="332.0" cy="362.9" r="3" fill="#f2b01e" stroke="#1a9e1a" stroke-width="1"/><circle cx="339.0" cy="362.9" r="3" fill="#f2b01e" stroke="#1a9e1a" stroke-width="1"/><circle cx="346.0" cy="362.9" r="3" fill="#f2b01e" stroke="#1a9e1a" stroke-width="1"/><circle cx="328.5" cy="368.9" r="3" fill="#f2b01e" stroke="#1a9e1a" stroke-width="1"/><circle cx="335.5" cy="368.9" r="3" fill="#f2b01e" stroke="#1a9e1a" stroke-width="1"/><circle cx="342.5" cy="368.9" r="3" fill="#f2b01e" stroke="#1a9e1a" stroke-width="1"/><circle cx="332.0" cy="374.9" r="3" fill="#f2b01e" stroke="#1a9e1a" stroke-width="1"/><circle cx="339.0" cy="374.9" r="3" fill="#f2b01e" stroke="#1a9e1a" stroke-width="1"/><circle cx="335.5" cy="380.8" r="3" fill="#f2b01e" stroke="#1a9e1a" stroke-width="1"/></g><text x="335.5" y="404" font-size="13" font-weight="600" fill="#1f1f1f" text-anchor="middle">Flowering</text><text x="24" y="436" font-size="11.5" font-weight="400" fill="#6b6b6b" text-anchor="start">A and B need two rows of 4 on a phone; C fits on one line.</text></svg>
